<?xml version="1.0" encoding="utf-8"?>
<!-- Generator: Adobe Illustrator 22.0.1, SVG Export Plug-In . SVG Version: 6.00 Build 0)  -->
<svg version="1.1" id="Camada_1" xmlns="http://www.w3.org/2000/svg" xmlns:xlink="http://www.w3.org/1999/xlink" x="0px" y="0px"
	 viewBox="0 0 50 50" style="enable-background:new 0 0 50 50;" xml:space="preserve">
<style type="text/css">
	.st0{fill:#211915;}
</style>
<g>
	<path class="st0" d="M93.5,29.8c-0.1,0-0.2,0-0.3-0.1c-0.2-0.1-0.4-0.3-0.4-0.6V22c0-0.3,0.3-0.6,0.6-0.6h6.6
		c0.3,0,0.6,0.3,0.6,0.6v7.2c0,0.2-0.1,0.5-0.4,0.6c-0.2,0.1-0.5,0.1-0.6-0.1l-2.9-2.6l-2.9,2.5C93.8,29.7,93.7,29.8,93.5,29.8z
		 M96.8,26.1l3.2,2.8v-6.7h-6.3v6.7L96.8,26.1z"/>
</g>
<g>
	<g>
		<path class="st0" d="M98.6,44c0,0-0.1,0-0.1,0c-0.2,0-0.4-0.2-0.4-0.4l-0.7-3.8l-2.8-2.4c-0.2-0.2-0.2-0.4-0.2-0.6
			c0.1-0.2,0.3-0.4,0.5-0.4h7.4c0.2,0,0.4,0.1,0.5,0.3c0.1,0.2,0.1,0.4,0,0.5l-3.7,6.6C99,43.9,98.8,44,98.6,44z M98.4,43.4
			C98.4,43.4,98.4,43.4,98.4,43.4L98.4,43.4z M95.4,37.1l2.6,2.2l0,0.1l0.6,3.4l3.3-5.8H95.4z M95,36.8L95,36.8
			C95,36.8,95,36.8,95,36.8z"/>
	</g>
	<g>
		<polygon class="st0" points="97.9,39.9 97.5,39.2 102.3,36.5 102.7,37.2 		"/>
	</g>
</g>
<g>
	<path class="st0" d="M33.8,0H16.1C7.2,0,0,7.2,0,16v17.8c0,8.8,7.2,16,16,16h17.7c8.8,0,16-7.2,16-16V16C49.9,7.2,42.7,0,33.8,0z
		 M46,16v17.8c0,6.7-5.4,12.1-12.1,12.1H16.1C9.4,45.9,4,40.4,4,33.8V16C4,9.3,9.4,3.9,16.1,3.9h17.7C40.5,3.9,46,9.3,46,16z"/>
	<polygon class="st0" points="26.9,12.9 23,12.9 23,22.9 13,22.9 13,26.9 23,26.9 23,36.8 26.9,36.8 26.9,26.9 36.9,26.9 36.9,22.9 
		26.9,22.9 	"/>
</g>
</svg>
