<?xml version="1.0" encoding="utf-8"?>
<!-- Generator: Adobe Illustrator 22.0.1, SVG Export Plug-In . SVG Version: 6.00 Build 0)  -->
<svg version="1.1" id="Camada_1" xmlns="http://www.w3.org/2000/svg" xmlns:xlink="http://www.w3.org/1999/xlink" x="0px" y="0px"
	 viewBox="0 0 50 50" style="enable-background:new 0 0 50 50;" xml:space="preserve">
<style type="text/css">
	.st0{fill:url(#SVGID_1_);}
	.st1{fill:url(#SVGID_2_);}
</style>
<g>
	<g>
		<linearGradient id="SVGID_1_" gradientUnits="userSpaceOnUse" x1="9.3166" y1="6.4801" x2="40.6355" y2="43.8046">
			<stop  offset="0" style="stop-color:#FDD61D"/>
			<stop  offset="0.2308" style="stop-color:#FD1D1D"/>
			<stop  offset="0.4563" style="stop-color:#F0427E"/>
			<stop  offset="0.6841" style="stop-color:#C100A3"/>
			<stop  offset="1" style="stop-color:#834EB4"/>
		</linearGradient>
		<path class="st0" d="M25,49.5c-13.4,0-24.4-10.9-24.4-24.4C0.6,11.7,11.5,0.8,25,0.8s24.4,10.9,24.4,24.4
			C49.3,38.6,38.4,49.5,25,49.5z M25,2.8c-12.3,0-22.4,10-22.4,22.4c0,12.3,10,22.4,22.4,22.4s22.4-10,22.4-22.4
			C47.3,12.8,37.3,2.8,25,2.8z"/>
	</g>
</g>
<g>
	<linearGradient id="SVGID_2_" gradientUnits="userSpaceOnUse" x1="12.8334" y1="25.9564" x2="37.0001" y2="25.9564">
		<stop  offset="0" style="stop-color:#FDA41D"/>
		<stop  offset="9.060594e-02" style="stop-color:#FD1D1D"/>
		<stop  offset="0.4911" style="stop-color:#F71949"/>
		<stop  offset="1" style="stop-color:#F0427E"/>
	</linearGradient>
	<path class="st1" d="M21.5,34.2l-8.4-8.5c-0.4-0.4-0.4-1,0-1.4c0.4-0.4,1-0.4,1.4,0l7,7.1L35.3,18c0.4-0.4,1-0.4,1.4,0
		c0.4,0.4,0.4,1,0,1.4L21.5,34.2z"/>
</g>
</svg>
