<?xml version="1.0" encoding="utf-8"?>
<!-- Generator: Adobe Illustrator 22.0.1, SVG Export Plug-In . SVG Version: 6.00 Build 0)  -->
<svg version="1.1" id="Camada_1" xmlns="http://www.w3.org/2000/svg" xmlns:xlink="http://www.w3.org/1999/xlink" x="0px" y="0px"
	 viewBox="0 0 50 50" style="enable-background:new 0 0 50 50;" xml:space="preserve">
<style type="text/css">
	.st0{fill:#211915;}
	.st1{fill:#212431;}
</style>
<g>
	<g>
		<path class="st0" d="M83.7,30.6L83.5,29c-0.9-0.8-1.3-1.9-1.3-3c0-2.3,1.8-4.1,4.1-4.1c2.3,0,4.1,1.8,4.1,4.1
			c0,2.3-1.8,4.1-4.1,4.1c-0.4,0-0.8-0.1-1.2-0.2L83.7,30.6z M86.3,22.6c-1.8,0-3.4,1.5-3.4,3.4c0,1,0.4,1.9,1.2,2.5l0.1,0.1
			l0.1,0.8l0.8-0.4l0.1,0c0.4,0.1,0.7,0.2,1.1,0.2c1.8,0,3.3-1.5,3.3-3.4S88.2,22.6,86.3,22.6z"/>
	</g>
	<path class="st1" d="M88.4,25.3c-0.1-0.1-0.2-0.1-0.3-0.1c-0.4,0.2-0.7,0.5-1,0.8c-0.4-0.3-0.7-0.6-1.1-0.8l-0.1,0
		c-0.2-0.1-0.5-0.1-0.6,0.1c-0.4,0.5-0.7,1-1,1.6c0,0.1,0,0.1,0,0.2c0.1,0.1,0.2,0.1,0.3,0.1c0.4-0.2,0.7-0.5,1.1-0.8
		c0.4,0.3,0.7,0.6,1.1,0.9l0.1,0c0.2,0.1,0.5,0.1,0.7-0.1c0.4-0.5,0.7-1,1-1.6C88.5,25.5,88.5,25.4,88.4,25.3z"/>
</g>
<g>
	<path d="M24.9,49.8c-2,0-4-0.2-6-0.7C11,47.2,2.9,39.3,0.9,31.5c-2-7.8-0.4-15.7,4.4-21.9c6.1-7.9,16.6-11.4,26.4-8.8
		C40.3,3.2,46.9,10,49,18.6c1.5,6,0.9,12-1.8,17.3l2.6,9.5c0.3,1,0,2-0.6,2.8c-0.6,0.8-1.5,1.2-2.3,1.2l-0.4,0l-10-2.7
		C33,48.8,29,49.8,24.9,49.8z M24.9,4.8c-6.2,0-12,2.8-15.8,7.8C5.2,17.6,4,24,5.6,30.3c1.6,6,8.3,12.6,14.4,14.1
		c5,1.2,10.1,0.6,14.5-1.8c1-0.6,2.2-0.7,3.4-0.4l6.6,1.8L42.6,37c-0.3-1-0.1-2.1,0.3-3.1c2.2-4.4,2.7-9.2,1.5-14.1
		c-1.7-6.9-7-12.4-13.9-14.2C28.7,5.1,26.8,4.8,24.9,4.8z"/>
</g>
<g>
	<path class="st0" d="M93.5,29.8c-0.1,0-0.2,0-0.3-0.1c-0.2-0.1-0.4-0.3-0.4-0.6V22c0-0.3,0.3-0.6,0.6-0.6h6.6
		c0.3,0,0.6,0.3,0.6,0.6v7.2c0,0.2-0.1,0.5-0.4,0.6c-0.2,0.1-0.5,0.1-0.6-0.1l-2.9-2.6l-2.9,2.5C93.8,29.7,93.7,29.8,93.5,29.8z
		 M96.8,26.1l3.2,2.8v-6.7h-6.3v6.7L96.8,26.1z"/>
</g>
<g>
	<g>
		<path class="st0" d="M98.6,44c0,0-0.1,0-0.1,0c-0.2,0-0.4-0.2-0.4-0.4l-0.7-3.8l-2.8-2.4c-0.2-0.2-0.2-0.4-0.2-0.6
			c0.1-0.2,0.3-0.4,0.5-0.4h7.4c0.2,0,0.4,0.1,0.5,0.3c0.1,0.2,0.1,0.4,0,0.5l-3.7,6.6C99,43.9,98.8,44,98.6,44z M98.4,43.4
			C98.4,43.4,98.4,43.4,98.4,43.4L98.4,43.4z M95.4,37.1l2.6,2.2l0,0.1l0.6,3.4l3.3-5.8H95.4z M95,36.8L95,36.8
			C95,36.8,95,36.8,95,36.8z"/>
	</g>
	<g>
		<polygon class="st0" points="97.9,39.9 97.5,39.2 102.3,36.5 102.7,37.2 		"/>
	</g>
</g>
<g>
	<g>
		<path class="st1" d="M88.8,19.5H86c-1.3,0-2.3-1-2.3-2.3v-2.8c0-1.3,1-2.3,2.3-2.3h2.8c1.3,0,2.3,1,2.3,2.3v2.8
			C91.1,18.4,90.1,19.5,88.8,19.5z M86,12.3c-1.1,0-2,0.9-2,2v2.8c0,1.1,0.9,2,2,2h2.8c1.1,0,2-0.9,2-2v-2.8c0-1.1-0.9-2-2-2H86z"/>
		<path class="st0" d="M88.8,19.6H86c-1.4,0-2.5-1.1-2.5-2.5v-2.8c0-1.4,1.1-2.5,2.5-2.5h2.8c1.4,0,2.5,1.1,2.5,2.5v2.8
			C91.3,18.5,90.2,19.6,88.8,19.6z M86,12.2c-1.2,0-2.2,1-2.2,2.2v2.8c0,1.2,1,2.2,2.2,2.2h2.8c1.2,0,2.2-1,2.2-2.2v-2.8
			c0-1.2-1-2.2-2.2-2.2H86z M88.8,19.3H86c-1.2,0-2.2-1-2.2-2.2v-2.8c0-1.2,1-2.2,2.2-2.2h2.8c1.2,0,2.2,1,2.2,2.2v2.8
			C91,18.3,90,19.3,88.8,19.3z M86,12.5c-1,0-1.9,0.8-1.9,1.9v2.8c0,1,0.8,1.9,1.9,1.9h2.8c1,0,1.9-0.8,1.9-1.9v-2.8
			c0-1-0.8-1.9-1.9-1.9H86z"/>
	</g>
	<g>
		<polygon class="st1" points="89.1,15.6 87.6,15.6 87.6,14.1 87.3,14.1 87.3,15.6 85.7,15.6 85.7,15.9 87.3,15.9 87.3,17.5 
			87.6,17.5 87.6,15.9 89.1,15.9 		"/>
		<path class="st0" d="M87.7,17.6h-0.6v-1.5h-1.5v-0.6h1.5v-1.5h0.6v1.5h1.5v0.6h-1.5V17.6z M87.4,17.3L87.4,17.3l0-1.5l1.5,0h-1.5
			l0-1.5v1.5l-1.5,0h1.5V17.3z"/>
	</g>
</g>
</svg>
