<?xml version="1.0" encoding="utf-8"?>
<!-- Generator: Adobe Illustrator 22.0.1, SVG Export Plug-In . SVG Version: 6.00 Build 0)  -->
<svg version="1.1" id="Camada_1" xmlns="http://www.w3.org/2000/svg" xmlns:xlink="http://www.w3.org/1999/xlink" x="0px" y="0px"
	 viewBox="0 0 50 50" style="enable-background:new 0 0 50 50;" xml:space="preserve">
<g>
	<g>
		<path d="M36.5,44.4c-2.1,1.3-4.2,2.2-6.3,2.8C17.6,50.5,4.8,42.9,1.6,30.3S5.9,5,18.5,1.7C30.9-1.5,43.8,6,47.1,18.6
			c1.6,6.3,0.5,13-3.2,18.6c0,0,3.4,9.6,3.2,10C46.9,47.5,36.5,44.4,36.5,44.4z M5.8,29.4c2.6,10.3,13.1,16.4,23.4,13.8
			c1.9-0.5,3.8-1.3,5.7-2.6l8,2.3L40,35.5c3.2-4.7,4.3-10.4,2.9-15.8C40.3,9.4,29.8,3.2,19.5,5.9S3.1,19.1,5.8,29.4z"/>
	</g>
</g>
</svg>
