<?xml version="1.0" encoding="utf-8"?>
<!-- Generator: Adobe Illustrator 22.0.1, SVG Export Plug-In . SVG Version: 6.00 Build 0)  -->
<svg version="1.1" id="Camada_1" xmlns="http://www.w3.org/2000/svg" xmlns:xlink="http://www.w3.org/1999/xlink" x="0px" y="0px"
	 viewBox="0 0 50 50" style="enable-background:new 0 0 50 50;" xml:space="preserve">
<style type="text/css">
	.st0{fill:#D7D8D8;}
</style>
<g>
	<path class="st0" d="M25.1,0C11.3,0,0.2,11.1,0.2,24.9c0,13.7,11.2,24.9,24.9,24.9S50,38.6,50,24.9C50,11.1,38.8,0,25.1,0z
		 M25.1,2.8c12.1,0,22,9.9,22,22s-9.9,22-22,22S3,37,3,24.9C3,12.7,12.9,2.8,25.1,2.8z"/>
</g>
<g>
	<circle class="st0" cx="16.6" cy="24.4" r="2.1"/>
	<circle class="st0" cx="33.6" cy="24.4" r="2.1"/>
</g>
<g>
	<path class="st0" d="M24.9,37.6c-5.9,0-8.6-5.1-8.7-5.3c-0.3-0.6-0.1-1.4,0.5-1.7c0.6-0.3,1.4-0.1,1.7,0.5c0.1,0.2,2.2,3.9,6.5,3.9
		H25c3.7-0.1,5.8-3.8,5.8-3.8c0.3-0.6,1.1-0.8,1.7-0.5c0.6,0.3,0.8,1.1,0.5,1.7c-0.1,0.2-2.8,5-8,5.1C25.1,37.6,25,37.6,24.9,37.6z"
		/>
</g>
</svg>
