<?xml version="1.0" encoding="utf-8"?>
<!-- Generator: Adobe Illustrator 22.0.1, SVG Export Plug-In . SVG Version: 6.00 Build 0)  -->
<svg version="1.1" id="Camada_1" xmlns="http://www.w3.org/2000/svg" xmlns:xlink="http://www.w3.org/1999/xlink" x="0px" y="0px"
	 viewBox="0 0 50 50" style="enable-background:new 0 0 50 50;" xml:space="preserve">
<style type="text/css">
	.st0{fill:#211915;}
	.st1{fill:#212431;}
	.st2{fill:#DF5A74;}
</style>
<g>
	<g>
		<path class="st0" d="M83.7,30.6L83.5,29c-0.9-0.8-1.3-1.9-1.3-3c0-2.3,1.8-4.1,4.1-4.1c2.3,0,4.1,1.8,4.1,4.1
			c0,2.3-1.8,4.1-4.1,4.1c-0.4,0-0.8-0.1-1.2-0.2L83.7,30.6z M86.3,22.6c-1.8,0-3.4,1.5-3.4,3.4c0,1,0.4,1.9,1.2,2.5l0.1,0.1
			l0.1,0.8l0.8-0.4l0.1,0c0.4,0.1,0.7,0.2,1.1,0.2c1.8,0,3.3-1.5,3.3-3.4S88.2,22.6,86.3,22.6z"/>
	</g>
	<path class="st1" d="M88.4,25.3c-0.1-0.1-0.2-0.1-0.3-0.1c-0.4,0.2-0.7,0.5-1,0.8c-0.4-0.3-0.7-0.6-1.1-0.8l-0.1,0
		c-0.2-0.1-0.5-0.1-0.6,0.1c-0.4,0.5-0.7,1-1,1.6c0,0.1,0,0.1,0,0.2c0.1,0.1,0.2,0.1,0.3,0.1c0.4-0.2,0.7-0.5,1.1-0.8
		c0.4,0.3,0.7,0.6,1.1,0.9l0.1,0c0.2,0.1,0.5,0.1,0.7-0.1c0.4-0.5,0.7-1,1-1.6C88.5,25.5,88.5,25.4,88.4,25.3z"/>
</g>
<path class="st2" d="M-11.1,21c-0.4-0.2-0.8-0.4-1.2-0.4c-0.7,0-1.4,0.4-1.9,1c-0.5-0.7-1.2-1-1.9-1c-0.4,0-0.8,0.1-1.2,0.4
	c-1.2,0.8-1.6,2.4-0.9,3.7c0.5,1.1,2.9,2.9,3.7,3.5c0.1,0.1,0.2,0.1,0.3,0.1c0.1,0,0.2,0,0.3-0.1c0.8-0.6,3.1-2.5,3.7-3.5
	C-9.5,23.4-9.9,21.8-11.1,21z"/>
<g>
	<path d="M83.9,44.1c-0.3,0-0.6,0-1-0.1c-1.3-0.3-2.5-1.6-2.9-2.8c-0.3-1.2-0.1-2.5,0.7-3.5c1-1.3,2.7-1.8,4.2-1.4
		c1.4,0.4,2.4,1.5,2.8,2.8c0.2,1,0.1,1.9-0.3,2.8l0.4,1.5c0,0.2,0,0.3-0.1,0.4c-0.1,0.1-0.2,0.2-0.4,0.2l-0.1,0l-1.6-0.4
		C85.2,44,84.5,44.1,83.9,44.1z M83.9,36.9c-1,0-1.9,0.5-2.5,1.2C80.7,39,80.5,40,80.8,41c0.2,1,1.3,2,2.3,2.3
		c0.8,0.2,1.6,0.1,2.3-0.3c0.2-0.1,0.4-0.1,0.5-0.1l1.1,0.3l-0.3-1.1c0-0.2,0-0.3,0.1-0.5c0.3-0.7,0.4-1.5,0.2-2.3
		c-0.3-1.1-1.1-2-2.2-2.3C84.5,37,84.2,36.9,83.9,36.9z"/>
</g>
<g>
	<path class="st0" d="M93.5,29.8c-0.1,0-0.2,0-0.3-0.1c-0.2-0.1-0.4-0.3-0.4-0.6V22c0-0.3,0.3-0.6,0.6-0.6h6.6
		c0.3,0,0.6,0.3,0.6,0.6v7.2c0,0.2-0.1,0.5-0.4,0.6c-0.2,0.1-0.5,0.1-0.6-0.1l-2.9-2.6l-2.9,2.5C93.8,29.7,93.7,29.8,93.5,29.8z
		 M96.8,26.1l3.2,2.8v-6.7h-6.3v6.7L96.8,26.1z"/>
</g>
<g>
	<g>
		<path class="st0" d="M98.6,44c0,0-0.1,0-0.1,0c-0.2,0-0.4-0.2-0.4-0.4l-0.7-3.8l-2.8-2.4c-0.2-0.2-0.2-0.4-0.2-0.6
			c0.1-0.2,0.3-0.4,0.5-0.4h7.4c0.2,0,0.4,0.1,0.5,0.3c0.1,0.2,0.1,0.4,0,0.5l-3.7,6.6C99,43.9,98.8,44,98.6,44z M98.4,43.4
			C98.4,43.4,98.4,43.4,98.4,43.4L98.4,43.4z M95.4,37.1l2.6,2.2l0,0.1l0.6,3.4l3.3-5.8H95.4z M95,36.8L95,36.8
			C95,36.8,95,36.8,95,36.8z"/>
	</g>
	<g>
		<polygon class="st0" points="97.9,39.9 97.5,39.2 102.3,36.5 102.7,37.2 		"/>
	</g>
</g>
<g>
	<path class="st1" d="M76.8,22.8c0.4,0,0.7,0.1,1.1,0.3c1.1,0.7,1.4,2.1,0.8,3.3c-0.4,0.8-2.3,2.4-3.8,3.5c0,0-0.1,0-0.1,0
		c0,0,0,0-0.1,0c-1.6-1.2-3.4-2.7-3.8-3.5c-0.6-1.1-0.3-2.6,0.8-3.3c0.3-0.2,0.7-0.3,1.1-0.3c0.7,0,1.3,0.3,1.7,0.9l0.3,0.5l0.3-0.5
		C75.5,23.1,76.1,22.8,76.8,22.8 M76.8,22.4c-0.8,0-1.5,0.4-2,1c-0.5-0.7-1.3-1-2-1c-0.4,0-0.9,0.1-1.3,0.4c-1.2,0.8-1.7,2.5-1,3.8
		c0.6,1.1,3.1,3,3.9,3.7c0.1,0.1,0.2,0.1,0.3,0.1c0.1,0,0.2,0,0.3-0.1c0.9-0.7,3.4-2.6,3.9-3.7c0.7-1.3,0.3-3.1-1-3.8
		C77.7,22.5,77.2,22.4,76.8,22.4L76.8,22.4z"/>
	<path class="st0" d="M74.7,30.5c-0.1,0-0.3,0-0.4-0.1c-1-0.8-3.4-2.6-4-3.7c-0.7-1.4-0.3-3.2,1-4c0.4-0.3,0.9-0.4,1.4-0.4
		c0.8,0,1.5,0.4,2,1c0.5-0.6,1.2-1,2-1c0.5,0,0.9,0.1,1.4,0.4c1.3,0.8,1.7,2.6,1,4c-0.6,1.1-3,3-4,3.7C75,30.5,74.9,30.5,74.7,30.5z
		 M72.7,22.5c-0.4,0-0.9,0.1-1.2,0.4c-1.2,0.7-1.6,2.4-0.9,3.7c0.6,1,2.9,2.9,3.9,3.6c0.1,0.1,0.4,0.1,0.5,0c1-0.7,3.4-2.6,3.9-3.6
		c0.7-1.3,0.3-2.9-0.9-3.7c-0.4-0.2-0.8-0.4-1.2-0.4c-0.8,0-1.5,0.4-1.9,1l-0.1,0.1l-0.1-0.1C74.2,22.9,73.5,22.5,72.7,22.5z
		 M74.7,30.1c-0.1,0-0.1,0-0.1,0c-0.8-0.6-3.3-2.5-3.9-3.6c-0.6-1.2-0.3-2.8,0.8-3.4c0.4-0.2,0.7-0.3,1.1-0.3c0.7,0,1.4,0.3,1.8,0.9
		l0.2,0.3l0.2-0.3c0.4-0.6,1.1-0.9,1.8-0.9c0.4,0,0.8,0.1,1.1,0.3c1.1,0.7,1.5,2.2,0.8,3.4c-0.6,1-3.1,3-3.9,3.6
		C74.8,30.1,74.8,30.1,74.7,30.1z M72.7,22.9c-0.3,0-0.7,0.1-1,0.3c-1,0.6-1.3,2-0.8,3.1c0.4,0.8,2.2,2.3,3.8,3.5
		c1.6-1.2,3.4-2.7,3.8-3.5c0.6-1.1,0.2-2.5-0.8-3.1c-0.3-0.2-0.7-0.3-1-0.3c-0.6,0-1.2,0.3-1.6,0.8l-0.4,0.6l-0.4-0.6
		C73.9,23.2,73.3,22.9,72.7,22.9z"/>
</g>
<g>
	<g>
		<path class="st1" d="M88.8,19.5H86c-1.3,0-2.3-1-2.3-2.3v-2.8c0-1.3,1-2.3,2.3-2.3h2.8c1.3,0,2.3,1,2.3,2.3v2.8
			C91.1,18.4,90.1,19.5,88.8,19.5z M86,12.3c-1.1,0-2,0.9-2,2v2.8c0,1.1,0.9,2,2,2h2.8c1.1,0,2-0.9,2-2v-2.8c0-1.1-0.9-2-2-2H86z"/>
		<path class="st0" d="M88.8,19.6H86c-1.4,0-2.5-1.1-2.5-2.5v-2.8c0-1.4,1.1-2.5,2.5-2.5h2.8c1.4,0,2.5,1.1,2.5,2.5v2.8
			C91.3,18.5,90.2,19.6,88.8,19.6z M86,12.2c-1.2,0-2.2,1-2.2,2.2v2.8c0,1.2,1,2.2,2.2,2.2h2.8c1.2,0,2.2-1,2.2-2.2v-2.8
			c0-1.2-1-2.2-2.2-2.2H86z M88.8,19.3H86c-1.2,0-2.2-1-2.2-2.2v-2.8c0-1.2,1-2.2,2.2-2.2h2.8c1.2,0,2.2,1,2.2,2.2v2.8
			C91,18.3,90,19.3,88.8,19.3z M86,12.5c-1,0-1.9,0.8-1.9,1.9v2.8c0,1,0.8,1.9,1.9,1.9h2.8c1,0,1.9-0.8,1.9-1.9v-2.8
			c0-1-0.8-1.9-1.9-1.9H86z"/>
	</g>
	<g>
		<polygon class="st1" points="89.1,15.6 87.6,15.6 87.6,14.1 87.3,14.1 87.3,15.6 85.7,15.6 85.7,15.9 87.3,15.9 87.3,17.5 
			87.6,17.5 87.6,15.9 89.1,15.9 		"/>
		<path class="st0" d="M87.7,17.6h-0.6v-1.5h-1.5v-0.6h1.5v-1.5h0.6v1.5h1.5v0.6h-1.5V17.6z M87.4,17.3L87.4,17.3l0-1.5l1.5,0h-1.5
			l0-1.5v1.5l-1.5,0h1.5V17.3z"/>
	</g>
</g>
<path d="M25,1.7c-0.8,0-1.6,0.3-2.3,0.9L1.7,23.8C0.6,24.9,0,26.3,0,27.9v17c0,1.9,1.5,3.5,3.4,3.5h12.8c1.9,0,3.4-1.5,3.4-3.5V34.6
	c0-2.5,2.8-4.6,5.4-4.6c2.5,0,5.4,2,5.4,4.6v10.2c0,1.9,1.5,3.5,3.4,3.5h12.8c1.9,0,3.4-1.5,3.4-3.5v-17c0-1.5-0.6-3-1.7-4.1
	L27.3,2.6C26.7,2,25.8,1.7,25,1.7"/>
</svg>
