<?xml version="1.0" encoding="utf-8"?>
<!-- Generator: Adobe Illustrator 22.0.1, SVG Export Plug-In . SVG Version: 6.00 Build 0)  -->
<svg version="1.1" id="Camada_1" xmlns="http://www.w3.org/2000/svg" xmlns:xlink="http://www.w3.org/1999/xlink" x="0px" y="0px"
	 viewBox="0 0 50 50" style="enable-background:new 0 0 50 50;" xml:space="preserve">
<style type="text/css">
	.st0{fill:#262626;}
</style>
<g>
	<path class="st0" d="M26.6,48.8L25.7,48c-0.3-0.3-7.9-7.6-10.9-10.9c-3.5-3.8-7.5-9.3-7.4-17c0-3.1,1.2-8,4.4-12.3
		c2.5-3.3,7.1-7.2,14.6-7.2c4.7,0,9.3,2.1,13,6c3.8,4,6.2,9.3,6,13.4c-0.4,8.1-4.9,13.9-7.1,16.7c-3,3.9-10.6,11-10.9,11.3
		L26.6,48.8z M26.4,3.1c-6.5,0-10.5,3.4-12.6,6.3c-2.8,3.8-3.9,8.2-3.9,10.8l0,0c0,6.9,3.6,11.8,6.8,15.4c2.3,2.6,7.8,7.9,9.9,9.9
		c2.1-2,7.5-7.2,9.8-10.2c2-2.6,6.2-8,6.5-15.3c0.2-3.4-2-8.1-5.3-11.5C34.4,5,30.4,3.1,26.4,3.1z"/>
</g>
<circle class="st0" cx="26.4" cy="20.3" r="3.1"/>
</svg>
