<?xml version="1.0" encoding="utf-8"?>
<!-- Generator: Adobe Illustrator 22.0.1, SVG Export Plug-In . SVG Version: 6.00 Build 0)  -->
<svg version="1.1" id="Camada_1" xmlns="http://www.w3.org/2000/svg" xmlns:xlink="http://www.w3.org/1999/xlink" x="0px" y="0px"
	 viewBox="0 0 50 50" style="enable-background:new 0 0 50 50;" xml:space="preserve">
<style type="text/css">
	.st0{fill:#211915;}
</style>
<g>
	<path class="st0" d="M25.1,0C11.3,0,0.2,11.1,0.2,24.9c0,13.7,11.2,24.9,24.9,24.9S50,38.6,50,24.9C50,11.1,38.8,0,25.1,0z
		 M25.1,2.8c12.1,0,22,9.9,22,22c0,12.1-9.9,22-22,22S3,37,3,24.9C3,12.7,12.9,2.8,25.1,2.8z"/>
	<path class="st0" d="M38.8,11.1l-18.7,8.8l-8.8,18.7L30,29.8L38.8,11.1z M31.8,18.2l-3.9,9.4l-2.6-3.4l-3-2.2L31.8,18.2z"/>
</g>
</svg>
