<?xml version="1.0" encoding="utf-8"?>
<!-- Generator: Adobe Illustrator 22.0.1, SVG Export Plug-In . SVG Version: 6.00 Build 0)  -->
<svg version="1.1" id="Camada_1" xmlns="http://www.w3.org/2000/svg" xmlns:xlink="http://www.w3.org/1999/xlink" x="0px" y="0px"
	 viewBox="0 0 50 50" style="enable-background:new 0 0 50 50;" xml:space="preserve">
<style type="text/css">
	.st0{fill:#FFFFFF;}
</style>
<g>
	<path d="M6.9,15.9c-1.6,0-3-1.3-3-3c0-1.6,1.3-3,3-3c1.6,0,3,1.3,3,3C9.9,14.6,8.6,15.9,6.9,15.9z M6.9,11c-1.1,0-2,0.9-2,2
		s0.9,2,2,2s2-0.9,2-2S8,11,6.9,11z"/>
</g>
<path d="M29.9,9.8c0-1.2-0.5-2.3-1.4-3.1c-0.9-0.8-2-1.3-3.2-1.2L4.6,6.1c-1.2,0-2.3,0.5-3.1,1.4c-0.8,0.9-1.3,2-1.2,3.2l0.6,21.1
	c0.1,2.4,2.1,4.4,4.5,4.4c0,0,0.1,0,0.1,0l20.7-0.6c2.5-0.1,4.4-2.2,4.4-4.6L29.9,9.8z M26.1,34.5L5.4,35.1
	c-1.9,0.1-3.5-1.5-3.6-3.4l0-0.2c0,0,0.1-0.1,0.1-0.1l5.2-5.8c0.3-0.3,0.8-0.4,1.1-0.1l4.5,3.5c0.7,0.5,1.7,0.5,2.3-0.1l8.8-8.5
	c0.2-0.2,0.2-0.5,0-0.7c-0.2-0.2-0.5-0.2-0.7,0l-8.8,8.5c-0.3,0.3-0.7,0.3-1,0.1l-4.5-3.5c-0.8-0.6-1.8-0.5-2.5,0.2l-4.6,5.2
	L1.2,10.7c0-0.9,0.3-1.8,1-2.5c0.6-0.7,1.5-1.1,2.4-1.1l20.7-0.6c0,0,0.1,0,0.1,0c0.9,0,1.7,0.3,2.4,1c0.7,0.6,1.1,1.5,1.1,2.4
	l0.6,21.1C29.6,32.9,28,34.5,26.1,34.5z"/>
<g>
	<path class="st0" d="M44.1,42.4l-20.7-0.9c-2.2-0.1-3.9-2-3.8-4.2l0.9-21.1c0.1-2.2,2-3.9,4.2-3.8l20.7,0.9c2.2,0.1,3.9,2,3.8,4.2
		l-0.9,21.1C48.1,40.8,46.3,42.5,44.1,42.4z"/>
	<path d="M44.2,42.9c-0.1,0-0.1,0-0.2,0L23.4,42c-2.5-0.1-4.4-2.2-4.3-4.7L20,16.3c0.1-2.5,2.2-4.4,4.7-4.3l20.7,0.9
		c2.5,0.1,4.4,2.2,4.3,4.7l-0.9,21.1C48.6,41,46.6,42.9,44.2,42.9z M24.5,13c-1.9,0-3.4,1.5-3.5,3.4l-0.9,21.1
		c-0.1,1.9,1.4,3.6,3.3,3.6l20.7,0.9c2,0.1,3.6-1.4,3.6-3.3l0.9-21.1c0-0.9-0.3-1.8-0.9-2.5s-1.5-1.1-2.4-1.1L24.6,13
		C24.6,13,24.5,13,24.5,13z"/>
</g>
<g>
	<path d="M28.9,35c-0.3,0-0.5-0.1-0.7-0.2c-0.4-0.3-0.6-0.7-0.6-1.1l0.5-13c0-0.5,0.3-0.9,0.7-1.1c0.4-0.2,0.9-0.2,1.3,0.1l11.8,7.4
		c0.4,0.3,0.7,0.8,0.6,1.2c0,0.5-0.3,0.9-0.8,1.1l-12.3,5.5C29.2,34.9,29.1,35,28.9,35z M29.4,20.3c-0.1,0-0.1,0-0.2,0
		c-0.1,0-0.2,0.1-0.2,0.3l-0.5,13c0,0.2,0.1,0.2,0.1,0.3c0,0,0.2,0.1,0.3,0l12.3-5.5c0.2-0.1,0.2-0.2,0.2-0.3s0-0.2-0.2-0.3
		l-11.8-7.4C29.5,20.3,29.5,20.3,29.4,20.3z M41.5,28.8L41.5,28.8L41.5,28.8z"/>
</g>
</svg>
