<?xml version="1.0" encoding="utf-8"?>
<!-- Generator: Adobe Illustrator 22.0.1, SVG Export Plug-In . SVG Version: 6.00 Build 0)  -->
<svg version="1.1" id="Camada_1" xmlns="http://www.w3.org/2000/svg" xmlns:xlink="http://www.w3.org/1999/xlink" x="0px" y="0px"
	 viewBox="0 0 50 50" style="enable-background:new 0 0 50 50;" xml:space="preserve">
<style type="text/css">
	.st0{fill:none;stroke:#000000;stroke-linecap:round;stroke-linejoin:round;stroke-miterlimit:10;}
	.st1{fill:none;stroke:#000000;stroke-linecap:round;stroke-miterlimit:10;}
	.st2{fill:#FFFFFF;stroke:#000000;stroke-linecap:round;stroke-miterlimit:10;}
</style>
<g>
	<path class="st0" d="M23.7,20.2l-8.8,8.5c-0.5,0.4-1.2,0.5-1.7,0.1l-4.5-3.5c-0.5-0.4-1.3-0.3-1.8,0.2l-5.2,5.8"/>
	<circle class="st1" cx="7.1" cy="13.2" r="2.5"/>
	<path class="st1" d="M24.8,35.3L7.1,35.8c-3,0.1-5.6-2.3-5.7-5.3L0.9,12.4c-0.1-3,2.3-5.6,5.3-5.7l17.7-0.5c3-0.1,5.6,2.3,5.7,5.3
		l0.5,18.1C30.2,32.7,27.8,35.2,24.8,35.3z"/>
	<path class="st2" d="M42.1,42.6l-16.4-0.7c-3.4-0.1-6-3-5.9-6.4l0.7-16.8c0.1-3.4,3-6,6.4-5.9l16.4,0.7c3.4,0.1,6,3,5.9,6.4
		l-0.7,16.8C48.3,40.1,45.4,42.7,42.1,42.6z"/>
</g>
<path class="st1" d="M40.9,29.5l-10.7,4.5c-1.2,0.5-2.4-0.4-2.3-1.7l0.7-10.5c0.1-1.2,1.5-2,2.5-1.3l10,6
	C42.3,27.2,42.2,29,40.9,29.5z"/>
</svg>
