<?xml version="1.0" encoding="utf-8"?>
<!-- Generator: Adobe Illustrator 22.0.1, SVG Export Plug-In . SVG Version: 6.00 Build 0)  -->
<svg version="1.1" id="Camada_1" xmlns="http://www.w3.org/2000/svg" xmlns:xlink="http://www.w3.org/1999/xlink" x="0px" y="0px"
	 viewBox="0 0 50 50" style="enable-background:new 0 0 50 50;" xml:space="preserve">
<g>
	<path d="M5.2,49.5c-0.4,0-0.9-0.1-1.3-0.3c-1.1-0.5-1.8-1.7-1.8-2.9V3c0-1.7,1.4-3.2,3.1-3.2h40c1.7,0,3.2,1.4,3.2,3.2v43.3
		c0,1.2-0.7,2.4-1.8,2.9c-1.1,0.5-2.4,0.3-3.4-0.5L25.2,33L7.3,48.7C6.7,49.2,6,49.5,5.2,49.5z M5,46.1C5,46.1,5,46.1,5,46.1L5,46.1
		z M5.6,3.4v42.2l18.5-16.2c0.7-0.6,1.6-0.6,2.3,0l18.5,16.2V3.4H5.6z"/>
</g>
</svg>
