<?xml version="1.0" encoding="utf-8"?>
<!-- Generator: Adobe Illustrator 22.0.1, SVG Export Plug-In . SVG Version: 6.00 Build 0)  -->
<svg version="1.1" id="Camada_1" xmlns="http://www.w3.org/2000/svg" xmlns:xlink="http://www.w3.org/1999/xlink" x="0px" y="0px"
	 viewBox="0 0 50 50" style="enable-background:new 0 0 50 50;" xml:space="preserve">
<path d="M49.2,4.6c-0.5-0.8-1.4-1.3-2.3-1.3H3.1C1.9,3.2,0.9,4,0.5,5C0.1,6.1,0.4,7.3,1.3,8l16.8,14.3l4.2,22.9
	c0.2,1.1,1.1,2,2.1,2.2c0.2,0,0.4,0.1,0.5,0.1c1,0,1.9-0.5,2.3-1.4L49.3,7.3C49.7,6.5,49.7,5.4,49.2,4.6z M4.6,6.5h38.1L19.9,19.6
	L4.6,6.5z M25.3,43.1l-3.8-20.6L44.4,9.3L25.3,43.1z"/>
</svg>
